# xmcd
#
# Track frame offsets: 
#        150
#        6430
#        22662
#        43347
#        61020
#        79087
#        89582
#        99237
#        129700
#        149910
#        162107
#        177052
#
# Disc length: 2615 seconds
#
# Revision: 2
# Processed by: cddbd v1.5.2PL0 Copyright (c) Steve Scherf et al.
# Submitted via: ExactAudioCopy v0.99pb5
#
DISCID=980a350c
DTITLE=Nashville Mandolin Ensemble - Plectrasonics
DYEAR=1995
DGENRE=Bluegrass
TTITLE0=Primordial Prelude
TTITLE1=Music For A Found Harmoium
TTITLE2=Frangenti
TTITLE3=Goodbye Pork-Pie Hat
TTITLE4=Orleans
TTITLE5=Fields Of Glass
TTITLE6=Where No Mandolin Has Gone Before ( Star Trek )
TTITLE7=Cuban Landscape With Rain
TTITLE8=Recuedos De La Alhambra
TTITLE9=Because
TTITLE10=Tears
TTITLE11=My Last Days On Earth
EXTD=
EXTT0=
EXTT1=
EXTT2=
EXTT3=
EXTT4=
EXTT5=
EXTT6=
EXTT7=
EXTT8=
EXTT9=
EXTT10=
EXTT11=
PLAYORDER=
